<?xml version="1.0" encoding="utf-8" ?>
<svg baseProfile="full" height="345" version="1.1" width="819" xmlns="http://www.w3.org/2000/svg" xmlns:ev="http://www.w3.org/2001/xml-events" xmlns:xlink="http://www.w3.org/1999/xlink"><defs /><rect fill="#ffffff" height="345" width="819" x="0" y="0" /><rect fill="#ffffff" height="64.0" stroke="#000000" width="512" x="281.6" y="25.6" /><rect fill="#ffffff" height="64.0" stroke="#000000" width="512" x="281.6" y="89.6" /><rect fill="#00ffff" height="64.0" stroke="#000000" width="20.0" x="281.6" y="25.6" /><rect fill="#ff00ff" height="64.0" stroke="#000000" width="20.0" x="301.6" y="25.6" /><rect fill="#00ffff" height="64.0" stroke="#000000" width="20.0" x="321.6" y="25.6" /><rect fill="#ffa500" height="64.0" stroke="#000000" width="179.0" x="341.6" y="25.6" /><rect fill="#00ffff" height="64.0" stroke="#000000" width="20.0" x="520.6" y="25.6" /><rect fill="#ff00ff" height="64.0" stroke="#000000" width="20.0" x="540.6" y="25.6" /><rect fill="#00ffff" height="64.0" stroke="#000000" width="20.0" x="560.6" y="25.6" /><rect fill="#ffa500" height="64.0" stroke="#000000" width="51.0" x="580.6" y="25.6" /><rect fill="#00ffff" height="64.0" stroke="#000000" width="20.0" x="631.6" y="25.6" /><rect fill="#ff00ff" height="64.0" stroke="#000000" width="20.0" x="651.6" y="25.6" /><rect fill="#00ffff" height="64.0" stroke="#000000" width="20.0" x="671.6" y="25.6" /><rect fill="#ffa500" height="64.0" stroke="#000000" width="102.0" x="691.6" y="25.6" /><rect fill="#ff0000" height="64.0" stroke="#000000" width="20.0" x="508.6" y="89.6" /><rect fill="#ffa500" height="64.0" stroke="#000000" width="111.0" x="528.6" y="89.6" /><rect fill="#00ffff" height="64.0" stroke="#000000" width="20.0" x="639.6" y="89.6" /><text fill="#000000" style="font-size:25px; font-family:Arial" x="25.6" y="70.4">Initialization</text><text fill="#000000" style="font-size:25px; font-family:Arial" x="25.6" y="134.4">Image Address Leak</text><rect fill="#00ffff" height="21.333333333333332" stroke="#000000" width="21.333333333333332" x="281.6" y="174.93333333333334" /><text fill="#000000" style="font-size:25px; font-family:Arial" x="313.6" y="194.13333333333333">Management Node</text><rect fill="#ff00ff" height="21.333333333333332" stroke="#000000" width="21.333333333333332" x="281.6" y="217.6" /><text fill="#000000" style="font-size:25px; font-family:Arial" x="313.6" y="236.79999999999998">Heap Node</text><rect fill="#ffa500" height="21.333333333333332" stroke="#000000" width="21.333333333333332" x="281.6" y="260.26666666666665" /><text fill="#000000" style="font-size:25px; font-family:Arial" x="313.6" y="279.4666666666667">Data</text><rect fill="#ff0000" height="21.333333333333332" stroke="#000000" width="21.333333333333332" x="281.6" y="302.9333333333333" /><text fill="#000000" style="font-size:25px; font-family:Arial" x="313.6" y="322.1333333333333">Misaligned Chunk / Bug</text></svg>