<svg width="1303pt" height="185pt" viewBox="0.00 0.00 1302.54 185.34" xmlns="http://www.w3.org/2000/svg" xmlns:xlink="http://www.w3.org/1999/xlink">
<g id="graph0" class="graph" transform="scale(1 1) rotate(0) translate(4 181.34)">
<title>TuringMachine</title>
<polygon fill="white" stroke="none" points="-4,4 -4,-181.34 1298.54,-181.34 1298.54,4 -4,4"/>
<!-- q0 -->
<g id="node1" class="node">
<title>q0</title>
<ellipse fill="none" stroke="black" cx="27" cy="-98.25" rx="27" ry="18"/>
<text text-anchor="middle" x="27" y="-94.05" font-family="Times,serif" font-size="14.00">q0</text>
</g>
<!-- q1 -->
<g id="node2" class="node">
<title>q1</title>
<ellipse fill="none" stroke="black" cx="164.84" cy="-125.25" rx="27" ry="18"/>
<text text-anchor="middle" x="164.84" y="-121.05" font-family="Times,serif" font-size="14.00">q1</text>
</g>
<!-- q0&#45;&gt;q1 -->
<g id="edge1" class="edge">
<title>q0-&gt;q1</title>
<path fill="none" stroke="black" d="M53.23,-103.26C74.1,-107.41 104.02,-113.36 127.48,-118.02"/>
<polygon fill="black" stroke="black" points="126.77,-121.45 137.26,-119.96 128.13,-114.58 126.77,-121.45"/>
<text text-anchor="middle" x="95.92" y="-119.94" font-family="Times,serif" font-size="14.00">0 → 1, R</text>
</g>
<!-- q9 -->
<g id="node3" class="node">
<title>q9</title>
<ellipse fill="none" stroke="black" cx="164.84" cy="-71.25" rx="27" ry="18"/>
<text text-anchor="middle" x="164.84" y="-67.05" font-family="Times,serif" font-size="14.00">q9</text>
</g>
<!-- q0&#45;&gt;q9 -->
<g id="edge2" class="edge">
<title>q0-&gt;q9</title>
<path fill="none" stroke="black" d="M52.6,-91.91C58.91,-90.36 65.69,-88.78 72,-87.45 90.02,-83.65 110.16,-80.03 126.97,-77.18"/>
<polygon fill="black" stroke="black" points="127.24,-80.68 136.53,-75.58 126.09,-73.78 127.24,-80.68"/>
<text text-anchor="middle" x="95.92" y="-91.65" font-family="Times,serif" font-size="14.00">1 → 0, R</text>
</g>
<!-- q2 -->
<g id="node4" class="node">
<title>q2</title>
<ellipse fill="none" stroke="black" cx="302.68" cy="-158.25" rx="27" ry="18"/>
<text text-anchor="middle" x="302.68" y="-154.05" font-family="Times,serif" font-size="14.00">q2</text>
</g>
<!-- q1&#45;&gt;q2 -->
<g id="edge3" class="edge">
<title>q1-&gt;q2</title>
<path fill="none" stroke="black" d="M190.49,-131.46C196.8,-133.03 203.57,-134.71 209.84,-136.25 228.21,-140.75 248.68,-145.66 265.62,-149.7"/>
<polygon fill="black" stroke="black" points="264.7,-153.08 275.24,-151.99 266.32,-146.27 264.7,-153.08"/>
<text text-anchor="middle" x="233.76" y="-151.94" font-family="Times,serif" font-size="14.00">0 → 1, R</text>
</g>
<!-- q10 -->
<g id="node5" class="node">
<title>q10</title>
<ellipse fill="none" stroke="black" cx="302.68" cy="-78.25" rx="27" ry="18"/>
<text text-anchor="middle" x="302.68" y="-74.05" font-family="Times,serif" font-size="14.00">q10</text>
</g>
<!-- q1&#45;&gt;q10 -->
<g id="edge4" class="edge">
<title>q1-&gt;q10</title>
<path fill="none" stroke="black" d="M190.19,-118.16C208.81,-112.59 235.03,-104.44 257.68,-96.25 261.36,-94.92 265.19,-93.46 268.98,-91.97"/>
<polygon fill="black" stroke="black" points="270.06,-95.31 278.03,-88.33 267.44,-88.82 270.06,-95.31"/>
<text text-anchor="middle" x="233.76" y="-116.21" font-family="Times,serif" font-size="14.00">1 → 0, R</text>
</g>
<!-- q9&#45;&gt;q10 -->
<g id="edge19" class="edge">
<title>q9-&gt;q10</title>
<path fill="none" stroke="black" d="M192.03,-72.6C212.51,-73.65 241.26,-75.13 264.18,-76.32"/>
<polygon fill="black" stroke="black" points="263.89,-79.81 274.05,-76.82 264.25,-72.81 263.89,-79.81"/>
<text text-anchor="middle" x="233.76" y="-79.98" font-family="Times,serif" font-size="14.00">0 → 0, R</text>
</g>
<!-- q9&#45;&gt;q10 -->
<g id="edge20" class="edge">
<title>q9-&gt;q10</title>
<path fill="none" stroke="black" d="M186.76,-60.27C193.88,-57.09 202.03,-54.05 209.84,-52.45 230.67,-48.18 237.16,-46.88 257.68,-52.45 263.3,-53.98 268.94,-56.42 274.22,-59.22"/>
<polygon fill="black" stroke="black" points="272.12,-62.04 282.51,-64.09 275.67,-56.01 272.12,-62.04"/>
<text text-anchor="middle" x="233.76" y="-56.65" font-family="Times,serif" font-size="14.00">1 → 1, R</text>
</g>
<!-- q3 -->
<g id="node6" class="node">
<title>q3</title>
<ellipse fill="none" stroke="black" cx="440.51" cy="-138.25" rx="27" ry="18"/>
<text text-anchor="middle" x="440.51" y="-134.05" font-family="Times,serif" font-size="14.00">q3</text>
</g>
<!-- q2&#45;&gt;q3 -->
<g id="edge5" class="edge">
<title>q2-&gt;q3</title>
<path fill="none" stroke="black" d="M329.69,-160.19C348.24,-160.97 373.65,-160.79 395.51,-156.25 399.43,-155.43 403.44,-154.28 407.37,-152.95"/>
<polygon fill="black" stroke="black" points="408.58,-156.24 416.67,-149.39 406.08,-149.7 408.58,-156.24"/>
<text text-anchor="middle" x="371.59" y="-164.74" font-family="Times,serif" font-size="14.00">0 → 0, R</text>
</g>
<!-- q2&#45;&gt;q3 -->
<g id="edge6" class="edge">
<title>q2-&gt;q3</title>
<path fill="none" stroke="black" d="M322.6,-145.92C330.09,-141.73 338.98,-137.57 347.68,-135.45 365.56,-131.09 385.97,-131.23 403.01,-132.7"/>
<polygon fill="black" stroke="black" points="402.37,-136.15 412.69,-133.73 403.11,-129.19 402.37,-136.15"/>
<text text-anchor="middle" x="371.59" y="-139.65" font-family="Times,serif" font-size="14.00">1 → 1, R</text>
</g>
<!-- q10&#45;&gt;q3 -->
<g id="edge21" class="edge">
<title>q10-&gt;q3</title>
<path fill="none" stroke="black" d="M327.61,-85.44C346.46,-91.45 373.19,-100.75 395.51,-111.45 400.72,-113.95 406.11,-116.89 411.24,-119.89"/>
<polygon fill="black" stroke="black" points="409.05,-122.66 419.41,-124.86 412.68,-116.68 409.05,-122.66"/>
<text text-anchor="middle" x="371.59" y="-115.65" font-family="Times,serif" font-size="14.00">0 → 1, R</text>
</g>
<!-- q11 -->
<g id="node15" class="node">
<title>q11</title>
<ellipse fill="none" stroke="black" cx="440.51" cy="-58.25" rx="27" ry="18"/>
<text text-anchor="middle" x="440.51" y="-54.05" font-family="Times,serif" font-size="14.00">q11</text>
</g>
<!-- q10&#45;&gt;q11 -->
<g id="edge22" class="edge">
<title>q10-&gt;q11</title>
<path fill="none" stroke="black" d="M324.61,-67.33C331.74,-64.15 339.87,-61.1 347.68,-59.45 365.42,-55.69 385.53,-55.04 402.4,-55.47"/>
<polygon fill="black" stroke="black" points="401.84,-58.95 411.97,-55.86 402.12,-51.96 401.84,-58.95"/>
<text text-anchor="middle" x="371.59" y="-63.65" font-family="Times,serif" font-size="14.00">1 → 0, R</text>
</g>
<!-- q4 -->
<g id="node7" class="node">
<title>q4</title>
<ellipse fill="none" stroke="black" cx="578.35" cy="-158.25" rx="27" ry="18"/>
<text text-anchor="middle" x="578.35" y="-154.05" font-family="Times,serif" font-size="14.00">q4</text>
</g>
<!-- q3&#45;&gt;q4 -->
<g id="edge7" class="edge">
<title>q3-&gt;q4</title>
<path fill="none" stroke="black" d="M467.38,-142.06C488.06,-145.1 517.31,-149.41 540.45,-152.81"/>
<polygon fill="black" stroke="black" points="539.68,-156.24 550.08,-154.23 540.7,-149.31 539.68,-156.24"/>
<text text-anchor="middle" x="509.43" y="-155.41" font-family="Times,serif" font-size="14.00">0 → 1, R</text>
</g>
<!-- q12 -->
<g id="node8" class="node">
<title>q12</title>
<ellipse fill="none" stroke="black" cx="578.35" cy="-78.25" rx="27" ry="18"/>
<text text-anchor="middle" x="578.35" y="-74.05" font-family="Times,serif" font-size="14.00">q12</text>
</g>
<!-- q3&#45;&gt;q12 -->
<g id="edge8" class="edge">
<title>q3-&gt;q12</title>
<path fill="none" stroke="black" d="M463.64,-128.47C485.64,-118.76 519.65,-103.73 544.75,-92.65"/>
<polygon fill="black" stroke="black" points="546.12,-95.87 553.85,-88.63 543.29,-89.47 546.12,-95.87"/>
<text text-anchor="middle" x="509.43" y="-121.33" font-family="Times,serif" font-size="14.00">1 → 0, R</text>
</g>
<!-- q5 -->
<g id="node9" class="node">
<title>q5</title>
<ellipse fill="none" stroke="black" cx="716.19" cy="-138.25" rx="27" ry="18"/>
<text text-anchor="middle" x="716.19" y="-134.05" font-family="Times,serif" font-size="14.00">q5</text>
</g>
<!-- q4&#45;&gt;q5 -->
<g id="edge9" class="edge">
<title>q4-&gt;q5</title>
<path fill="none" stroke="black" d="M605.37,-160.19C623.91,-160.97 649.33,-160.79 671.19,-156.25 675.11,-155.43 679.12,-154.28 683.05,-152.95"/>
<polygon fill="black" stroke="black" points="684.25,-156.24 692.34,-149.39 681.75,-149.7 684.25,-156.24"/>
<text text-anchor="middle" x="647.27" y="-164.74" font-family="Times,serif" font-size="14.00">0 → 0, R</text>
</g>
<!-- q4&#45;&gt;q5 -->
<g id="edge10" class="edge">
<title>q4-&gt;q5</title>
<path fill="none" stroke="black" d="M598.27,-145.92C605.77,-141.73 614.66,-137.57 623.35,-135.45 641.23,-131.09 661.65,-131.23 678.69,-132.7"/>
<polygon fill="black" stroke="black" points="678.05,-136.15 688.36,-133.73 678.79,-129.19 678.05,-136.15"/>
<text text-anchor="middle" x="647.27" y="-139.65" font-family="Times,serif" font-size="14.00">1 → 1, R</text>
</g>
<!-- q12&#45;&gt;q5 -->
<g id="edge25" class="edge">
<title>q12-&gt;q5</title>
<path fill="none" stroke="black" d="M603.28,-85.44C622.14,-91.45 648.87,-100.75 671.19,-111.45 676.4,-113.95 681.78,-116.89 686.92,-119.89"/>
<polygon fill="black" stroke="black" points="684.72,-122.66 695.09,-124.86 688.36,-116.68 684.72,-122.66"/>
<text text-anchor="middle" x="647.27" y="-115.65" font-family="Times,serif" font-size="14.00">0 → 1, R</text>
</g>
<!-- q13 -->
<g id="node16" class="node">
<title>q13</title>
<ellipse fill="none" stroke="black" cx="716.19" cy="-58.25" rx="27" ry="18"/>
<text text-anchor="middle" x="716.19" y="-54.05" font-family="Times,serif" font-size="14.00">q13</text>
</g>
<!-- q12&#45;&gt;q13 -->
<g id="edge26" class="edge">
<title>q12-&gt;q13</title>
<path fill="none" stroke="black" d="M600.29,-67.33C607.41,-64.15 615.55,-61.1 623.35,-59.45 641.1,-55.69 661.2,-55.04 678.07,-55.47"/>
<polygon fill="black" stroke="black" points="677.52,-58.95 687.65,-55.86 677.8,-51.96 677.52,-58.95"/>
<text text-anchor="middle" x="647.27" y="-63.65" font-family="Times,serif" font-size="14.00">1 → 0, R</text>
</g>
<!-- q6 -->
<g id="node10" class="node">
<title>q6</title>
<ellipse fill="none" stroke="black" cx="854.03" cy="-118.25" rx="27" ry="18"/>
<text text-anchor="middle" x="854.03" y="-114.05" font-family="Times,serif" font-size="14.00">q6</text>
</g>
<!-- q5&#45;&gt;q6 -->
<g id="edge11" class="edge">
<title>q5-&gt;q6</title>
<path fill="none" stroke="black" d="M743.21,-140.19C761.75,-140.97 787.17,-140.79 809.03,-136.25 812.94,-135.43 816.95,-134.28 820.88,-132.95"/>
<polygon fill="black" stroke="black" points="822.09,-136.24 830.18,-129.39 819.59,-129.7 822.09,-136.24"/>
<text text-anchor="middle" x="785.11" y="-144.74" font-family="Times,serif" font-size="14.00">0 → 0, R</text>
</g>
<!-- q5&#45;&gt;q6 -->
<g id="edge12" class="edge">
<title>q5-&gt;q6</title>
<path fill="none" stroke="black" d="M736.11,-125.92C743.6,-121.73 752.5,-117.57 761.19,-115.45 779.07,-111.09 799.49,-111.23 816.52,-112.7"/>
<polygon fill="black" stroke="black" points="815.88,-116.15 826.2,-113.73 816.63,-109.19 815.88,-116.15"/>
<text text-anchor="middle" x="785.11" y="-119.65" font-family="Times,serif" font-size="14.00">1 → 1, R</text>
</g>
<!-- q7 -->
<g id="node11" class="node">
<title>q7</title>
<ellipse fill="none" stroke="black" cx="991.87" cy="-98.25" rx="27" ry="18"/>
<text text-anchor="middle" x="991.87" y="-94.05" font-family="Times,serif" font-size="14.00">q7</text>
</g>
<!-- q6&#45;&gt;q7 -->
<g id="edge13" class="edge">
<title>q6-&gt;q7</title>
<path fill="none" stroke="black" d="M881.04,-120.19C899.59,-120.97 925.01,-120.79 946.87,-116.25 950.78,-115.43 954.79,-114.28 958.72,-112.95"/>
<polygon fill="black" stroke="black" points="959.93,-116.24 968.02,-109.39 957.43,-109.7 959.93,-116.24"/>
<text text-anchor="middle" x="922.95" y="-124.74" font-family="Times,serif" font-size="14.00">0 → 0, R</text>
</g>
<!-- q6&#45;&gt;q7 -->
<g id="edge14" class="edge">
<title>q6-&gt;q7</title>
<path fill="none" stroke="black" d="M873.95,-105.92C881.44,-101.73 890.33,-97.57 899.03,-95.45 916.91,-91.09 937.33,-91.23 954.36,-92.7"/>
<polygon fill="black" stroke="black" points="953.72,-96.15 964.04,-93.73 954.46,-89.19 953.72,-96.15"/>
<text text-anchor="middle" x="922.95" y="-99.65" font-family="Times,serif" font-size="14.00">1 → 1, R</text>
</g>
<!-- q8 -->
<g id="node12" class="node">
<title>q8</title>
<ellipse fill="none" stroke="black" cx="1129.7" cy="-123.25" rx="27" ry="18"/>
<text text-anchor="middle" x="1129.7" y="-119.05" font-family="Times,serif" font-size="14.00">q8</text>
</g>
<!-- q7&#45;&gt;q8 -->
<g id="edge15" class="edge">
<title>q7-&gt;q8</title>
<path fill="none" stroke="black" d="M1018.42,-102.95C1039.19,-106.77 1068.77,-112.22 1092.07,-116.51"/>
<polygon fill="black" stroke="black" points="1091.31,-119.92 1101.78,-118.29 1092.58,-113.04 1091.31,-119.92"/>
<text text-anchor="middle" x="1060.78" y="-118.65" font-family="Times,serif" font-size="14.00">0 → 1, R</text>
</g>
<!-- q16 -->
<g id="node13" class="node">
<title>q16</title>
<ellipse fill="none" stroke="black" cx="1129.7" cy="-34.25" rx="27" ry="18"/>
<text text-anchor="middle" x="1129.7" y="-30.05" font-family="Times,serif" font-size="14.00">q16</text>
</g>
<!-- q7&#45;&gt;q16 -->
<g id="edge16" class="edge">
<title>q7-&gt;q16</title>
<path fill="none" stroke="black" d="M1014.69,-87.97C1036.87,-77.52 1071.47,-61.21 1096.74,-49.31"/>
<polygon fill="black" stroke="black" points="1098.01,-52.58 1105.56,-45.15 1095.03,-46.25 1098.01,-52.58"/>
<text text-anchor="middle" x="1060.78" y="-79.92" font-family="Times,serif" font-size="14.00">1 → 0, R</text>
</g>
<!-- q17 -->
<g id="node14" class="node">
<title>q17</title>
<ellipse fill="none" stroke="black" cx="1267.54" cy="-83.25" rx="27" ry="18"/>
<text text-anchor="middle" x="1267.54" y="-79.05" font-family="Times,serif" font-size="14.00">q17</text>
</g>
<!-- q8&#45;&gt;q17 -->
<g id="edge17" class="edge">
<title>q8-&gt;q17</title>
<path fill="none" stroke="black" d="M1155.94,-118.29C1174.55,-114.38 1200.38,-108.39 1222.54,-101.25 1226.27,-100.05 1230.12,-98.67 1233.93,-97.23"/>
<polygon fill="black" stroke="black" points="1234.99,-100.58 1243,-93.64 1232.41,-94.07 1234.99,-100.58"/>
<text text-anchor="middle" x="1198.62" y="-118.21" font-family="Times,serif" font-size="14.00">0 → 0, R</text>
</g>
<!-- q8&#45;&gt;q17 -->
<g id="edge18" class="edge">
<title>q8-&gt;q17</title>
<path fill="none" stroke="black" d="M1145.18,-108.08C1156.53,-96.39 1171,-81.95 1174.7,-80.45 1192.28,-73.31 1213.35,-73.41 1230.87,-75.56"/>
<polygon fill="black" stroke="black" points="1229.89,-78.95 1240.31,-76.99 1230.94,-72.03 1229.89,-78.95"/>
<text text-anchor="middle" x="1198.62" y="-84.65" font-family="Times,serif" font-size="14.00">1 → 1, R</text>
</g>
<!-- q16&#45;&gt;q16 -->
<g id="edge34" class="edge">
<title>q16-&gt;q16</title>
<path fill="none" stroke="black" d="M1117.69,-50.54C1114.8,-60.64 1118.8,-70.25 1129.7,-70.25 1136.18,-70.25 1140.22,-66.86 1141.83,-61.99"/>
<polygon fill="black" stroke="black" points="1145.33,-62.02 1141.73,-52.05 1138.33,-62.09 1145.33,-62.02"/>
<text text-anchor="middle" x="1129.7" y="-74.45" font-family="Times,serif" font-size="14.00">1 → 0, R</text>
</g>
<!-- q16&#45;&gt;q17 -->
<g id="edge33" class="edge">
<title>q16-&gt;q17</title>
<path fill="none" stroke="black" d="M1156.85,-36.97C1175.68,-39.57 1201.39,-44.49 1222.54,-53.45 1228.49,-55.97 1234.47,-59.34 1240.03,-62.9"/>
<polygon fill="black" stroke="black" points="1238,-65.75 1248.22,-68.54 1241.97,-59.99 1238,-65.75"/>
<text text-anchor="middle" x="1198.62" y="-57.65" font-family="Times,serif" font-size="14.00">0 → 1, R</text>
</g>
<!-- q11&#45;&gt;q12 -->
<g id="edge23" class="edge">
<title>q11-&gt;q12</title>
<path fill="none" stroke="black" d="M467.38,-62.06C488.06,-65.1 517.31,-69.41 540.45,-72.81"/>
<polygon fill="black" stroke="black" points="539.68,-76.24 550.08,-74.23 540.7,-69.31 539.68,-76.24"/>
<text text-anchor="middle" x="509.43" y="-75.41" font-family="Times,serif" font-size="14.00">0 → 0, R</text>
</g>
<!-- q11&#45;&gt;q12 -->
<g id="edge24" class="edge">
<title>q11-&gt;q12</title>
<path fill="none" stroke="black" d="M464.31,-48.98C483.23,-42.66 510.61,-36.72 533.35,-44.45 540.83,-46.99 548.03,-51.37 554.36,-56.15"/>
<polygon fill="black" stroke="black" points="551.85,-58.61 561.79,-62.3 556.32,-53.23 551.85,-58.61"/>
<text text-anchor="middle" x="509.43" y="-48.65" font-family="Times,serif" font-size="14.00">1 → 1, R</text>
</g>
<!-- q13&#45;&gt;q6 -->
<g id="edge27" class="edge">
<title>q13-&gt;q6</title>
<path fill="none" stroke="black" d="M741.12,-65.44C759.97,-71.45 786.71,-80.75 809.03,-91.45 814.24,-93.95 819.62,-96.89 824.75,-99.89"/>
<polygon fill="black" stroke="black" points="822.56,-102.66 832.92,-104.86 826.2,-96.68 822.56,-102.66"/>
<text text-anchor="middle" x="785.11" y="-95.65" font-family="Times,serif" font-size="14.00">0 → 1, R</text>
</g>
<!-- q14 -->
<g id="node17" class="node">
<title>q14</title>
<ellipse fill="none" stroke="black" cx="854.03" cy="-38.25" rx="27" ry="18"/>
<text text-anchor="middle" x="854.03" y="-34.05" font-family="Times,serif" font-size="14.00">q14</text>
</g>
<!-- q13&#45;&gt;q14 -->
<g id="edge28" class="edge">
<title>q13-&gt;q14</title>
<path fill="none" stroke="black" d="M738.12,-47.33C745.25,-44.15 753.39,-41.1 761.19,-39.45 778.93,-35.69 799.04,-35.04 815.91,-35.47"/>
<polygon fill="black" stroke="black" points="815.35,-38.95 825.49,-35.86 815.64,-31.96 815.35,-38.95"/>
<text text-anchor="middle" x="785.11" y="-43.65" font-family="Times,serif" font-size="14.00">1 → 0, R</text>
</g>
<!-- q14&#45;&gt;q7 -->
<g id="edge29" class="edge">
<title>q14-&gt;q7</title>
<path fill="none" stroke="black" d="M878.96,-45.44C897.81,-51.45 924.54,-60.75 946.87,-71.45 952.08,-73.95 957.46,-76.89 962.59,-79.89"/>
<polygon fill="black" stroke="black" points="960.4,-82.66 970.76,-84.86 964.04,-76.68 960.4,-82.66"/>
<text text-anchor="middle" x="922.95" y="-75.65" font-family="Times,serif" font-size="14.00">0 → 1, R</text>
</g>
<!-- q15 -->
<g id="node18" class="node">
<title>q15</title>
<ellipse fill="none" stroke="black" cx="991.87" cy="-18.25" rx="27" ry="18"/>
<text text-anchor="middle" x="991.87" y="-14.05" font-family="Times,serif" font-size="14.00">q15</text>
</g>
<!-- q14&#45;&gt;q15 -->
<g id="edge30" class="edge">
<title>q14-&gt;q15</title>
<path fill="none" stroke="black" d="M875.96,-27.33C883.09,-24.15 891.23,-21.1 899.03,-19.45 916.77,-15.69 936.88,-15.04 953.75,-15.47"/>
<polygon fill="black" stroke="black" points="953.19,-18.95 963.33,-15.86 953.47,-11.96 953.19,-18.95"/>
<text text-anchor="middle" x="922.95" y="-23.65" font-family="Times,serif" font-size="14.00">1 → 0, R</text>
</g>
<!-- q15&#45;&gt;q16 -->
<g id="edge31" class="edge">
<title>q15-&gt;q16</title>
<path fill="none" stroke="black" d="M1018.74,-21.3C1039.41,-23.73 1068.66,-27.18 1091.8,-29.9"/>
<polygon fill="black" stroke="black" points="1091.09,-33.34 1101.43,-31.04 1091.9,-26.39 1091.09,-33.34"/>
<text text-anchor="middle" x="1060.78" y="-32.82" font-family="Times,serif" font-size="14.00">0 → 0, R</text>
</g>
<!-- q15&#45;&gt;q16 -->
<g id="edge32" class="edge">
<title>q15-&gt;q16</title>
<path fill="none" stroke="black" d="M1015.56,-8.86C1034.41,-2.41 1061.75,3.79 1084.7,-3.45 1091.59,-5.62 1098.34,-9.29 1104.4,-13.37"/>
<polygon fill="black" stroke="black" points="1101.94,-15.9 1112.06,-19.03 1106.1,-10.27 1101.94,-15.9"/>
<text text-anchor="middle" x="1060.78" y="-7.65" font-family="Times,serif" font-size="14.00">1 → 1, R</text>
</g>
</g>
</svg>